<svg width="20" height="21" viewBox="0 0 20 21" fill="none" xmlns="http://www.w3.org/2000/svg">
<mask id="mask0_1045_177" style="mask-type:luminance" maskUnits="userSpaceOnUse" x="0" y="0" width="20" height="21">
<path d="M0 0.5H20V20.5H0V0.5Z" fill="white"/>
</mask>
<g mask="url(#mask0_1045_177)">
<path d="M15.3125 0.5H4.6875C2.09867 0.5 0 2.59867 0 5.1875V15.8125C0 18.4013 2.09867 20.5 4.6875 20.5H15.3125C17.9013 20.5 20 18.4013 20 15.8125V5.1875C20 2.59867 17.9013 0.5 15.3125 0.5Z" fill="#F4F2ED"/>
<path fill-rule="evenodd" clip-rule="evenodd" d="M14.9275 15.7349C14.672 16.1558 14.4166 16.4713 14.1084 16.7643C13.7628 17.0724 13.6651 17.3429 12.8686 17.4482C12.3051 17.5534 11.8166 17.3429 11.6287 17.2603C11.0651 16.9972 10.772 16.9147 10.434 16.9147C10.1034 16.9147 9.8253 16.9973 9.26921 17.2528C9.0964 17.3429 8.63054 17.5458 8.05945 17.4407C7.47335 17.3354 7.17273 17.1101 6.95484 16.9222C6.50398 16.524 6.16577 16.1482 5.85773 15.7124L14.9275 15.7349Z" fill="#00A0E2"/>
<path fill-rule="evenodd" clip-rule="evenodd" d="M4.58797 8.72421C4.85094 8.13062 5.19656 7.73233 5.54226 7.45429C6.4214 6.73296 7.85664 6.68788 8.51789 6.86069C9.05898 6.99593 9.44219 7.32655 10.0509 7.32655C10.6895 7.32655 11.0577 7.00343 11.5612 6.86069C12.2225 6.69538 13.6652 6.74796 14.6045 7.46929C14.8826 7.67976 15.1379 7.9653 15.2807 8.12312C14.9427 8.37108 14.7397 8.5514 14.5744 8.72421H4.58797Z" fill="#34BE2D"/>
<path fill-rule="evenodd" clip-rule="evenodd" d="M14.5745 8.72412C14.4166 8.89693 14.304 9.06232 14.1762 9.29522C14.026 9.56576 13.8455 9.93397 13.8005 10.49H4.14461C4.15211 10.3998 4.15961 10.3022 4.17461 10.2044C4.26484 9.61084 4.40758 9.1224 4.58789 8.72412H14.5745Z" fill="#FFB400"/>
<path fill-rule="evenodd" clip-rule="evenodd" d="M13.8005 10.4902C13.7929 10.6605 13.7929 10.831 13.8005 11.0013C13.823 11.4145 13.9658 11.8729 14.1537 12.2411L4.33242 12.2185C4.19719 11.6249 4.12203 11.0163 4.14461 10.4902H13.8005Z" fill="#FF7A00"/>
<path fill-rule="evenodd" clip-rule="evenodd" d="M14.1536 12.2408C14.2305 12.4002 14.3237 12.5513 14.4316 12.6916C15.0778 13.5182 15.3559 13.5182 15.8593 13.7737C15.8219 13.8637 15.7918 13.9465 15.7541 14.0217L4.90352 13.9991C4.69313 13.5408 4.47524 12.8945 4.33243 12.2183L14.1536 12.2408Z" fill="#F41E34"/>
<path fill-rule="evenodd" clip-rule="evenodd" d="M15.7541 14.0221C15.4386 14.7585 15.1831 15.2994 14.9275 15.7353L5.85789 15.7128C5.55727 15.2694 5.2868 14.7809 4.97868 14.1722C4.95618 14.1197 4.9261 14.0595 4.90352 13.9995L15.7541 14.0221Z" fill="#A2359C"/>
<path fill-rule="evenodd" clip-rule="evenodd" d="M12.6056 4.61391C12.553 4.98969 12.3652 5.47055 12.0646 5.77859C11.7413 6.1243 11.238 6.5 10.9373 6.68789C10.772 6.79305 10.3437 6.80805 9.99063 6.8457C9.94555 6.53008 9.93805 6.25953 10.0357 5.96648C10.1634 5.62086 10.3289 5.12492 10.5918 4.77922C10.9148 4.35094 11.2831 4.05789 11.4859 3.95266C11.7566 3.81742 12.2074 3.61453 12.5981 3.54688C12.6132 3.8925 12.6659 4.28328 12.6056 4.61391Z" fill="#34BE2D"/>
</g>
</svg>
