<svg width="64" height="62" viewBox="0 0 64 62" fill="none" xmlns="http://www.w3.org/2000/svg">
<mask id="mask0_1271_556" style="mask-type:luminance" maskUnits="userSpaceOnUse" x="0" y="0" width="64" height="62">
<path d="M0 0H64V61.8613H0V0Z" fill="white"/>
</mask>
<g mask="url(#mask0_1271_556)">
<path d="M64.1389 39.3569C64.1389 51.8397 53.632 61.9955 40.7222 61.9955H23.4167C20.0394 61.9955 17.3009 59.3486 17.3009 56.0842C17.3009 52.8175 20.0394 50.1706 23.4167 50.1706H40.7176C46.8866 50.1706 51.9028 45.3197 51.9028 39.3592C51.9028 33.4008 46.8866 28.5477 40.7176 28.5477H34.6019V22.6341C34.6019 16.6735 29.5857 11.8227 23.4167 11.8227C17.2477 11.8227 12.2361 16.6735 12.2361 22.6341V39.3569C12.2361 42.6214 9.49769 45.2683 6.11806 45.2683C2.74074 45.2683 0 42.6214 0 39.3569V22.6341C0 10.1536 10.5046 0 23.4167 0C34.4468 0 43.7199 7.40823 46.1898 17.3448C56.4722 19.7344 64.1389 28.6954 64.1389 39.3569ZM23.4167 16.7228C20.0394 16.7228 17.3009 19.3675 17.3009 22.6341V39.3569C17.3009 42.6214 20.0394 45.2683 23.4167 45.2683H40.7176C44.0949 45.2683 46.8333 42.6214 46.8333 39.3569C46.8333 36.0925 44.0949 33.4455 40.7176 33.4455H29.537V22.6341C29.537 19.3675 26.794 16.7228 23.4167 16.7228Z" fill="#004AAD"/>
</g>
<mask id="mask1_1271_556" style="mask-type:luminance" maskUnits="userSpaceOnUse" x="0" y="50" width="12" height="12">
<path d="M0 50.7275H11.662V61.9999H0V50.7275Z" fill="white"/>
</mask>
<g mask="url(#mask1_1271_556)">
<mask id="mask2_1271_556" style="mask-type:luminance" maskUnits="userSpaceOnUse" x="0" y="50" width="12" height="12">
<path d="M5.83102 50.7275C2.61111 50.7275 0 53.2514 0 56.3637C0 59.476 2.61111 61.9999 5.83102 61.9999C9.05093 61.9999 11.662 59.476 11.662 56.3637C11.662 53.2514 9.05093 50.7275 5.83102 50.7275Z" fill="white"/>
</mask>
<g mask="url(#mask2_1271_556)">
<path d="M0 50.7275H11.662V61.9999H0V50.7275Z" fill="#FF3131"/>
</g>
</g>
</svg>
