<svg width="37" height="29" viewBox="0 0 37 29" fill="none" xmlns="http://www.w3.org/2000/svg">
<rect x="0.5" width="36" height="29" rx="4" fill="#CCDBEF"/>
<path d="M10.5 10.5C10.5 9.39543 11.3954 8.5 12.5 8.5H24.5C25.6046 8.5 26.5 9.39543 26.5 10.5V18.5C26.5 19.6046 25.6046 20.5 24.5 20.5H12.5C11.3954 20.5 10.5 19.6046 10.5 18.5V10.5ZM17 16.5C16.7239 16.5 16.5 16.7239 16.5 17C16.5 17.2761 16.7239 17.5 17 17.5H20C20.2761 17.5 20.5 17.2761 20.5 17C20.5 16.7239 20.2761 16.5 20 16.5H17Z" fill="#004AAD"/>
</svg>
