<svg width="20" height="21" viewBox="0 0 20 21" fill="none" xmlns="http://www.w3.org/2000/svg">
<path d="M9.3402 10.0347L0.0845337 18.8082C0.188474 19.1414 0.375258 19.4488 0.630607 19.7067C0.885956 19.9647 1.20311 20.1664 1.55783 20.2964C1.91254 20.4265 2.29542 20.4814 2.67721 20.4571C3.059 20.4327 3.42957 20.3297 3.76062 20.1559L14.175 14.7896L9.3402 10.0347Z" fill="#EA4335"/>
<path d="M18.6993 8.54332L14.1957 6.20947L9.12646 10.2342L14.2164 14.777L18.6856 12.4681C19.0815 12.2806 19.4131 11.9985 19.6445 11.6526C19.8759 11.3067 19.9982 10.91 19.9982 10.5057C19.9982 10.1013 19.8759 9.70471 19.6445 9.35878C19.4131 9.01285 19.0815 8.73082 18.6856 8.54325L18.6993 8.54332Z" fill="#FBBC04"/>
<path d="M0.0845313 2.15967C0.0286186 2.3468 0.00076972 2.53988 0.00173315 2.73373V18.2339C0.00228525 18.4277 0.0301084 18.6206 0.0845313 18.808L9.65749 10.2592L0.0845313 2.15967Z" fill="#4285F4"/>
<path d="M9.40917 10.484L14.1957 6.20962L3.79514 0.818238C3.40383 0.610902 2.95877 0.501097 2.50529 0.500004C1.37993 0.498026 0.390575 1.17379 0.0845337 2.15364L9.40917 10.484Z" fill="#34A853"/>
</svg>
