<svg width="37" height="29" viewBox="0 0 37 29" fill="none" xmlns="http://www.w3.org/2000/svg">
<rect x="0.5" width="36" height="29" rx="4" fill="#CCDBEF"/>
<path d="M23.0069 12.3295C23.4166 12.6461 23.89 12.6576 24.346 12.858C24.5959 12.9678 24.9223 13.1541 25.2464 13.4634C25.9074 14.0944 26.5011 15.1812 26.5011 17.0001C26.5008 19.0624 25.4893 20.4694 23.9639 21.3325C22.471 22.1772 20.4972 22.5001 18.5005 22.5001C16.3099 22.5001 14.2892 22.1216 12.8165 20.8827C10.9088 19.2779 10.4723 16.5348 10.4971 14.1726C10.5039 13.5232 10.5859 12.0607 11.1733 10.5671C11.5648 9.57197 12.1887 8.5503 13.1834 7.7772C14.3597 6.863 15.8882 6.47785 17.3611 6.50098C17.6093 6.50675 18.5922 6.54593 19.6158 6.90301C20.7686 7.30513 22.1011 8.18132 22.1011 10.0001C22.1011 11.3594 22.5902 12.0075 23.0069 12.3295Z" fill="#004AAD"/>
</svg>
